# xmcd
#
# Track frame offsets:
#	150
#	2110
#	15576
#	33115
#	42004
#	50407
#	63042
#	76353
#	91911
#	103196
#	114049
#	123145
#	140975
#	148898
#	162424
#
# Disc length: 2364 seconds
#
# Revision: 1
# Processed by: cddbd v1.5.2PL0 Copyright (c) Steve Scherf et al.
# Submitted via: audiograbber 1.83.01
#
DISCID=ba093a0f
DTITLE=Bob Urh and The Bare Bones - Swamp O Delic
DYEAR=1900
DGENRE=lo fi
TTITLE0=Intro
TTITLE1=Iron City Blues
TTITLE2=Ramblin Man/Boom Boom A Zoom Zoom (Instro)
TTITLE3=Black Black Widow
TTITLE4=Zombie-fied
TTITLE5=There She Is
TTITLE6=The Heart
TTITLE7=Boom Boom A Zoom Zoom
TTITLE8=Dark Punk Maya
TTITLE9=No Desguise
TTITLE10=No Matter What
TTITLE11=The Bones Walk
TTITLE12=Ramblin Man
TTITLE13=I'm Sick
TTITLE14=The Heart (Electric)
EXTD=
EXTT0=
EXTT1=
EXTT2=
EXTT3=
EXTT4=
EXTT5=
EXTT6=
EXTT7=
EXTT8=
EXTT9=
EXTT10=
EXTT11=
EXTT12=
EXTT13=
EXTT14=
PLAYORDER=
